<svg width="1707" height="416" viewBox="0 0 1707 416" fill="none" xmlns="http://www.w3.org/2000/svg">
<path d="M329.767 151.333C326.567 158.666 324.433 165.333 324.833 166C325.233 166.666 324.967 167.466 324.167 168C323.1 168.666 314.833 185.2 314.833 186.8C314.833 188.533 283.233 260.8 280.7 264.933C277.1 270.666 276.167 271.333 268.167 274.266L262.167 276.4H284.833C297.367 276.4 306.967 276.266 306.167 276C305.5 275.733 302.567 275.2 299.767 274.666C288.3 272.8 286.433 263.866 294.033 246.4C296.433 240.666 304.7 221.2 312.167 202.933C319.767 184.8 326.3 170 326.7 170C327.5 170 363.767 246.133 368.833 258.533C371.367 264.533 370.433 270.8 366.7 272.8C365.233 273.466 361.5 274.666 358.433 275.333C354.833 276 364.033 276.4 384.833 276.4C415.367 276.533 416.567 276.4 410.833 274.533C399.633 270.666 400.433 271.866 366.167 198.666C358.3 181.733 348.833 161.733 345.367 154.133C341.767 146.533 338.833 139.866 338.833 139.2C338.833 138.533 338.033 138 337.233 138C336.3 138 332.967 144 329.767 151.333Z" fill="black"/>
<path d="M812.967 150.133C810.167 156.933 808.433 163.333 808.833 164.4C809.233 165.467 808.7 167.333 807.633 168.533C806.433 169.733 801.767 180 797.1 191.333C770.033 257.2 767.633 262.533 762.167 268.267C758.033 272.533 755.367 274.133 750.833 274.8C740.3 276.533 748.567 277.333 770.433 276.8C786.567 276.4 790.167 276 785.633 275.2C770.7 272.4 769.767 266.133 780.433 240.4L787.5 223.333H812.833H838.167L847.233 242.4C856.167 261.6 857.233 265.467 854.833 270C853.367 272.667 846.967 275.333 841.9 275.333C840.167 275.333 838.967 275.733 839.233 276.267C839.633 276.933 853.9 277.2 871.1 276.933L902.167 276.533L894.833 274C890.833 272.667 886.433 270.133 884.967 268.4C882.567 265.6 844.967 190.133 827.767 153.6C823.633 145.067 819.767 138 819.1 138C818.3 138 815.633 143.467 812.967 150.133ZM813.633 171.6C814.567 174 820.033 185.6 825.633 197.333L835.9 218.667L823.9 219.067C817.367 219.2 806.967 219.2 800.833 219.067L789.633 218.667L794.033 208C806.033 179.2 808.033 174.4 808.833 170.933C810.033 166.133 811.5 166.4 813.633 171.6Z" fill="black"/>
<path d="M486.833 144.533C486.833 145.2 489.767 146 493.367 146.533C502.433 147.733 506.3 152.4 507.5 163.6C508.033 168.267 508.167 192.133 507.9 216.667C507.5 256.4 507.233 261.867 505.1 265.6C502.167 271.067 498.167 273.733 490.7 275.2C486.3 276 490.967 276.4 508.567 276.8C531.767 277.333 539.1 276.533 528.033 274.8C524.967 274.267 520.967 273.067 518.967 272C511.9 268.4 511.5 266.133 511.1 222C510.833 199.6 510.833 175.867 511.1 169.333L511.5 157.333L521.633 178C527.233 189.333 540.7 216.667 551.367 238.533C562.3 260.667 571.5 277.867 572.167 277.2C573.234 276 588.167 244.667 614.434 188.267C622.3 171.6 629.1 158 629.767 158C631.5 158 630.834 256.4 629.1 263.2C627.1 270.4 622.967 273.733 614.034 275.2C609.767 276 618.834 276.4 640.834 276.4C662.167 276.4 671.9 276 667.767 275.333C660.434 274 655.634 271.333 653.234 267.067C650.7 262.533 650.7 160.4 653.234 154.4C655.367 149.467 661.767 146 668.7 146C671.367 146 673.5 145.333 673.5 144.667C673.5 143.867 665.767 143.333 652.834 143.333H632.167L627.634 152.267C625.234 157.333 620.034 168.267 616.167 176.667C612.3 185.067 605.234 200.133 600.567 210C595.767 219.867 591.1 230.133 590.034 232.667C588.967 235.2 586.434 240.933 584.3 245.333L580.434 253.333L569.767 231.333C563.9 219.2 551.9 194.533 543.1 176.267L526.967 143.333H506.833C495.9 143.333 486.833 143.867 486.833 144.533Z" fill="black"/>
<path d="M970.833 144.666C970.833 145.333 973.1 146 975.9 146C983.1 146 989.1 150.133 990.7 156.266C992.567 163.066 992.7 258.267 990.7 265.067C989.1 271.067 985.233 273.867 976.567 275.333C972.833 275.867 994.7 276.4 1030.3 276.533L1090.43 276.667L1091.37 269.6C1092.57 258.667 1092.3 244.4 1090.83 245.333C1090.17 245.733 1089.5 247.333 1089.5 248.8C1089.5 255.6 1081.23 266.133 1072.3 270.667C1066.3 273.733 1046.3 275.467 1035.37 273.867C1015.63 271.067 1013.63 267.2 1013.5 232.933V208.667H1021.63C1038.7 208.667 1045.77 213.2 1049.5 226L1052.03 234.667V208.667V182.666L1049.63 189.6C1048.3 193.466 1046.43 197.6 1045.37 198.8C1041.77 203.2 1033.23 206 1023.23 206H1013.5V175.866V145.6L1034.57 146.4C1049.1 146.933 1057.37 147.733 1061.77 149.333C1069.77 152.133 1076.97 160 1078.97 168C1079.77 171.2 1080.83 173.733 1081.37 173.466C1081.77 173.2 1081.9 166.4 1081.5 158.4L1080.83 144L1025.9 143.6C989.367 143.466 970.833 143.733 970.833 144.666Z" fill="black"/>
<path d="M1164.97 150.267C1163.23 167.6 1162.97 176.667 1164.03 176.667C1164.7 176.667 1165.63 174.4 1166.17 171.733C1168.3 160.133 1175.1 152 1184.83 149.333C1188.43 148.4 1198.83 147.2 1207.9 146.667L1224.17 145.867V204C1224.17 266.267 1223.9 269.2 1217.5 272.667C1215.77 273.6 1211.77 274.8 1208.3 275.333C1204.57 276 1214.7 276.4 1234.83 276.4C1256.03 276.4 1265.5 276 1261.77 275.2C1252.43 273.467 1248.97 271.067 1247.1 265.467C1245.9 261.6 1245.5 246.4 1245.77 203.467L1246.17 146.667L1262.83 146.933C1290.7 147.6 1297.9 151.333 1303.63 168.267L1306.7 177.333L1306.43 160.667L1306.17 144L1235.9 143.6L1165.63 143.333L1164.97 150.267Z" fill="black"/>
<path d="M1380.17 144.667C1380.17 145.333 1382.03 146 1384.3 146C1390.7 146 1396.97 149.6 1399.1 154.4C1401.5 160.267 1401.63 260.8 1399.23 266.267C1397.1 270.933 1392.7 273.733 1385.37 275.2C1381.23 276 1389.1 276.533 1411.23 276.8C1428.83 277.067 1443.37 276.933 1443.77 276.267C1444.03 275.733 1442.03 275.333 1439.23 275.333C1433.5 275.333 1426.43 271.6 1423.9 267.067C1421.37 262.533 1421.37 160.533 1423.9 154.4C1426.03 149.6 1432.3 146 1438.7 146C1440.97 146 1442.83 145.333 1442.83 144.667C1442.83 143.867 1431.5 143.333 1411.5 143.333C1391.5 143.333 1380.17 143.867 1380.17 144.667Z" fill="black"/>
</svg>
